<?xml version="1.0" encoding="utf-8"?>
<!-- Generator: Adobe Illustrator 26.2.1, SVG Export Plug-In . SVG Version: 6.00 Build 0)  -->
<svg version="1.1" id="Capa_1" xmlns="http://www.w3.org/2000/svg" xmlns:xlink="http://www.w3.org/1999/xlink" x="0px" y="0px"
	 viewBox="0 0 1052.6 1080" style="enable-background:new 0 0 1052.6 1080;" xml:space="preserve">
<style type="text/css">
	.st0{fill:#FFFFFF;}
</style>
<g>
	<path class="st0" d="M513.91,1034.18c-65.59,0-131.17,0.05-196.76-0.02c-45.22-0.05-87.36-30.87-106.77-77.86
		c-19.08-46.17-10.51-94.73,25.04-127.48c57.68-53.14,117.41-104.09,173.97-158.38c12.83-12.32,20.12-33.9,22.94-52.29
		c3.86-25.13-0.1-51.34,1.31-76.98c1.49-27.11-3.97-49.29-25.55-68.79c-8.51-7.69-13.33-27.84-9.61-38.87
		c6.85-20.28,12.15-46.14,43.92-45.57c47.57,0.86,95.2,1.31,142.73-0.28c31.73-1.06,39.13,23.25,45.4,43.77
		c3.77,12.32-1.22,34.69-10.58,42.26c-26.91,21.77-19.88,49.83-23.93,77.18c-10.63,71.84,12.97,124.45,73.13,166.71
		c43.87,30.81,81.2,71,121.06,107.43c38.37,35.05,48.81,81.41,30.06,129.73c-18.41,47.43-62.52,79.42-109.59,79.44
		C645.08,1034.2,579.5,1034.18,513.91,1034.18z M564.39,999.71c47.51,0,94.25-4.1,141.65-1.92c44.62,2.05,64.54-27.08,79.49-60.02
		c14.77-32.55,5.67-62.59-21.96-86.44c-19.43-16.77-37.28-35.57-57.82-50.8c-11.45-8.49-26.82-15.89-40.64-16.27
		c-61.58-1.7-123.26-1.51-184.85,0.01c-12.65,0.31-27.54,6.46-37.18,14.79c-36.89,31.86-71.43,66.42-108.14,98.51
		c-18.43,16.11-14.75,26.71-0.42,44.07c34.05,41.25,69.39,61.53,126.85,60.13C489.6,1003.32,531.01,999.71,564.39,999.71z
		 M635.02,745.97c-27.68-35.16-61.4-62.02-72.33-96.17c-11.94-37.3-2.14-81.37-3.06-122.46c-0.59-26.28,0.6-49.78,23.59-69.14
		c18.85-15.88,12.1-31.13-11.93-32.31c-37.17-1.84-74.54-1.45-111.75-0.05c-22.45,0.84-33.86,13.9-13.91,31.21
		c24.94,21.65,26.54,47.56,25.59,76.51c-1.01,30.8-1.89,61.78,0.24,92.46c2.08,29.81-8.62,50.44-31.14,69.81
		c-60.36,51.94-119.26,105.62-177.89,159.53c-26.91,24.74-31.29,63.93-13.34,95.04c21.74,37.69,44.73,49.65,78.9,39.35
		c-5.42-6.29-10.05-12.13-15.16-17.52c-43.23-45.58-42.7-64.84,3.92-108.52c32.81-30.74,64.22-63.42,99.78-90.61
		c18.55-14.19,44.29-24.11,67.57-25.95C533.3,743.27,583,745.97,635.02,745.97z"/>
	<path class="st0" d="M617.21,257c-58.88,0.61-106.01-44.82-107.55-103.66c-1.52-58.08,44.91-106.32,103.49-107.52
		c61.55-1.25,108.39,44.25,108.48,105.4C721.72,210.98,676.9,256.38,617.21,257z M614.64,82.93c-37.86,0.74-67.68,31.84-66.98,69.87
		c0.7,38.12,31.29,67.13,70.11,66.49c38.25-0.63,67.72-31.26,66.92-69.57C683.91,112.09,652.56,82.19,614.64,82.93z"/>
	<path class="st0" d="M408.21,341.38c-44.21,0.09-78.46-33.25-79.28-77.18c-0.86-45.75,33.84-81.41,79.27-81.47
		c44.87-0.06,81.03,36.81,79.89,81.46C486.97,307.62,452.13,341.29,408.21,341.38z M433.01,231.47c-2.64-2.4-10.13-5.94-15.54-6.71
		c-10.17-1.45-21.09-0.71-26.68,2.61c-15.01,10.34-20.75,17.72-23.22,34.65c-3.87,26.59,15.95,42.16,42.91,41.32
		c25.7-0.8,42.71-18.68,38.54-42.12C446.4,246.49,443.86,241.35,433.01,231.47z"/>
</g>
</svg>
