<?xml version="1.0" encoding="utf-8"?>
<!-- Generator: Adobe Illustrator 26.2.1, SVG Export Plug-In . SVG Version: 6.00 Build 0)  -->
<svg version="1.1" id="Capa_1" xmlns="http://www.w3.org/2000/svg" xmlns:xlink="http://www.w3.org/1999/xlink" x="0px" y="0px"
	 viewBox="0 0 1266.74 1032.94" style="enable-background:new 0 0 1266.74 1032.94;" xml:space="preserve">
<style type="text/css">
	.st0{fill:#FFFFFF;}
</style>
<g>
	<path class="st0" d="M361.63,367.67c21.31-48.65,39.14-95.37,61.76-139.64c34.75-68,82.74-126.65,137.95-179.32
		c17.69-16.88,38.7-20.58,60.47-10.56c19.84,9.13,31.62,24.99,32.45,48.27c1.48,41.83-7.72,81.52-21.98,120.37
		c-2.84,7.74-5.74,15.46-9.79,26.33c18.62-9.31,34.4-18.14,50.91-25.25c32.94-14.19,66.03-28.12,99.55-40.89
		c33.29-12.69,53.65-7.75,72.73,15.21c16.2,19.49,14.91,44.34-2.35,73.39c-32.88,55.33-78.09,98.12-132.17,132.14
		c-4.83,3.04-9.57,6.24-18.44,12.05c23.11-2.36,41.57-4.3,60.03-6.13C887.5,380.3,1025.89,460.46,1081.16,584
		c4.18,9.35,8.89,18.81,10.88,28.72c8.03,39.89,32.9,71.78,49.6,107.53c17.23,36.89,30.78,74.99,28.55,116.61
		c-2.55,47.6-35.34,76.6-76.13,67.38c-9.83-2.22-19.05-7.19-28.17-10.74c-16.54,20.26-33.29,40.31-49.49,60.8
		c-9.9,12.53-21.58,17.27-38.07,17.16c-111.8-0.76-223.6-0.43-335.4-0.31c-14.76,0.02-29.56,1.69-44.28,1.09
		c-18.46-0.75-35.65-4.72-44.53-24.27c-8.38-18.44-6.46-34.87,8.75-50.62c-4.26-3.28-7.94-6.1-12.1-9.31
		c-1.68,2.79-3.29,4.27-3.47,5.91c-8.22,74.4-61.17,85.98-112.42,75.02c-6.27-1.34-15.76-12.34-15.06-17.74
		c7.41-57.26-19.87-99.18-61.64-131.14c-38.53-29.48-81.5-53.21-122.76-79.08c-77.94-48.86-120.47-121.17-136.18-209.75
		c-10.94-61.68,8.56-94.54,65.51-121.51c57.73-27.33,118.52-41,182.26-42.07C353.34,367.58,359.69,367.67,361.63,367.67z
		 M404.96,400.54c2.21-3.21,3.81-5.96,5.82-8.37c45.14-54.08,96.73-100.94,155.65-139.71c7.92-5.21,17.56-10.48,21.75-18.24
		c24.49-45.24,39.38-93.59,37.45-145.46c-0.32-8.66-9.23-20.6-17.26-24.28c-7.02-3.22-21.34-0.07-27.39,5.63
		c-63.25,59.49-115.37,127.74-150.91,207.2c-17.39,38.88-29.86,79.96-44.7,120.46c-78.51-5.88-156.56,8.82-217.91,43.13
		c-20.46,11.44-42.87,23.13-42.06,52.25c2.17,78.35,30.01,146.47,90.44,196.48c36.76,30.42,80,53.06,120.56,78.82
		c44.6,28.32,84.21,61.57,102.98,112.78c7.1,19.37,9,40.64,13.29,61.17c35.97,3.69,54.37-4.61,62.6-32.51
		c3.83-12.96,2.77-27.87,1.54-41.68c-1.56-17.44-5.55-34.65-8.26-50.61c36.81,26.8,73.11,53.22,111.48,81.17
		c-1.05,3.48-3.4,11.22-5.76,19.01c-8.45-0.5-15.94-2.66-22.22-0.79c-5.62,1.67-9.92,7.78-14.81,11.93
		c4.53,4.68,8.47,10.29,13.82,13.69c3.31,2.1,8.76,1.07,13.25,1.06c122.06-0.21,244.12-0.67,366.18-0.41
		c13.63,0.03,23.37-3.89,31.11-14.67c19.27-26.87,38.75-53.6,58.65-81.09c1.91,2.04,4.38,4.8,6.98,7.43
		c14.98,15.13,31.69,29.39,54.03,18.94c22.28-10.42,20.39-33.32,21.01-53.82c0.06-1.9-0.25-3.88-0.79-5.71
		c-7-23.92-13-48.21-21.37-71.65c-14.36-40.26-41.91-73.81-54.33-115.98c-33.89-115.08-139.66-194.1-261.17-204.59
		c-81.53-7.04-156.53,12.81-224.12,59.78c-16.07,11.17-33.37,20.58-49.32,30.32c-14.25-21.25-26.94-40.18-40.59-60.52
		c8.55-2.96,15.59-5.7,22.81-7.85c64.22-19.09,125.93-43.83,182.72-79.93c51.2-32.54,93.95-73.3,124.7-126.08
		c7.63-13.1,11.96-26,1.56-39.28c-10.79-13.77-24.74-10.84-38.59-5.86c-12.68,4.55-25.3,9.27-37.83,14.2
		c-106.56,41.93-201.43,101.55-280.16,185.5c-24.66,26.3-24.58,26.38-57.74,10.74C407.5,402.85,407.07,402.31,404.96,400.54z"/>
	<path class="st0" d="M289.49,486c0.21,17.33-14.07,32.11-31.35,32.45c-19.39,0.37-32.93-12.98-32.69-32.23
		c0.22-18.18,13.78-31.83,31.56-31.78C274.27,454.47,289.29,469.07,289.49,486z"/>
</g>
</svg>
