<?xml version="1.0" encoding="utf-8"?>
<!-- Generator: Adobe Illustrator 26.2.1, SVG Export Plug-In . SVG Version: 6.00 Build 0)  -->
<svg version="1.1" id="Capa_1" xmlns="http://www.w3.org/2000/svg" xmlns:xlink="http://www.w3.org/1999/xlink" x="0px" y="0px"
	 viewBox="0 0 1052.6 1080" style="enable-background:new 0 0 1052.6 1080;" xml:space="preserve">
<style type="text/css">
	.st0{fill:#FFFFFF;}
</style>
<path d="M3710.33,1448.9c-5.12-2.57-8.95-15.91-7.16-22.72"/>
<g>
	<path class="st0" d="M195.05,884.92c-10.36,39.1-10.36,39.11-50.45,39.15c-23.7,0.02-47.4-0.03-71.1-0.02
		c-19.84,0.01-29.59-9.89-29.58-29.69c0.03-85.43,0.15-170.87-0.11-256.3c-0.06-19.92,9.47-30.34,28.81-30.74
		c29.61-0.61,59.51-2.45,88.76,0.88c13.05,1.49,24.81,14.28,37.15,21.94c-0.76,2.21-1.52,4.42-2.29,6.62
		c25.01-7.43,49.92-15.22,75.04-22.24c68.78-19.21,133.04-12.63,193.83,28.57c31.95,21.66,68.54,36.36,102.01,55.95
		c35.62,20.85,70.11,43.65,104.89,65.9c4.9,3.14,8.93,7.77,13.01,12.05c27.13,28.47,34.59,56.31,21.46,79.53
		c-12.73,22.52-38.13,29.93-77.33,18.65c-40.57-11.68-79.96-27.5-120.56-39.03c-40.51-11.51-82.1-19.22-122.75-30.3
		c-9.35-2.55-16.8-12.05-25.13-18.35c9.36-4.65,19.91-14.77,27.89-13.05c50.25,10.84,100.15,23.55,149.74,37.17
		c37.44,10.28,74.03,23.62,111.49,33.8c8.12,2.21,23.1-0.48,26.32-5.96c3.59-6.1,0.6-21.93-5.16-26.66
		c-31.76-26.08-63.63-52.69-98.53-74.12c-46.67-28.66-96.88-51.51-144.22-79.16c-42.27-24.69-86.21-27.92-132.27-17.4
		c-19.74,4.51-39.05,10.98-58.44,16.93c-46.56,14.29-46.54,14.38-46.54,64.07c0,36.37,0.51,72.75-0.21,109.11
		c-0.27,13.87,4.76,20.22,18.5,21.03c59.6,3.49,113.79,23.81,164.97,53.4c5.84,3.38,12.15,5.95,18.12,9.13
		c85.51,45.47,172.67,53.04,259.94,6.9c97.81-51.71,194.64-105.28,291.32-159.07c15.99-8.89,29.84-22.26,43.02-35.24
		c5.83-5.74,7.51-15.68,11.07-23.71c-9.12-3.12-18.58-9.55-27.28-8.65c-16.59,1.71-33.66,5.5-48.9,12.16
		c-39.46,17.27-78.15,36.33-116.92,55.15c-18.24,8.86-35.74,19.25-53.97,28.15c-12.11,5.91-26.75,19.47-36.92,0.05
		c-9.73-18.59,9.77-22.34,20.52-28.02c44.84-23.71,89.58-47.78,135.59-69.03c27.42-12.66,56.79-21.63,86-29.64
		c12.37-3.39,27.23-2.56,39.85,0.67c34.98,8.94,47.72,41.59,26.74,70.7c-11.64,16.15-26.71,31.08-43.15,42.32
		c-107.77,73.72-221.43,136.74-342.61,186.08c-76.7,31.23-152.08,27.45-226.71-5.24c-30.94-13.55-60.96-29.23-91.13-44.48
		C279.69,895.13,237.81,888.06,195.05,884.92z M77.83,889.82c27.49,0,52.51,0,78.87,0c0-83.46,0-165.57,0-248.53
		c-27.08,0-52.08,0-78.87,0C77.83,724.14,77.83,805.58,77.83,889.82z"/>
	<path class="st0" d="M210.24,252.98c9.42,86.1,17.59,168.24,27.96,250.1c0,0,8.7,39.19,18.19,57.82
		c3.72,7.31-2.53,17.47-4.07,26.28c-8.47-4.52-22.79-7.5-24.47-13.82c-13.34-50.38-27.23-100.93-35.19-152.33
		c-9.29-59.93-12.43-120.79-18.94-181.17c-1.91-17.71,6.35-24.05,21.79-21.74c30.06,4.48,60.39,8.49,89.78,15.95
		c87.8,22.29,170.42,56.3,238.59,117.99c60.24,54.52,98.92,120.01,93.27,204.63c-1.16,17.45-5.51,35.15-11.52,51.59
		c-2.29,6.25-13.41,9.26-20.5,13.75c-3.15-8.28-10.84-17.99-8.75-24.62c23.63-75.16,0.88-138.97-48.9-194.34
		c-75.76-84.25-176.15-122.54-284.01-145.18C234.46,256.01,225.24,255.16,210.24,252.98z"/>
	<path class="st0" d="M856.15,327.53c-57.27,4.44-114.69,5.33-170.64,14.85c-25.57,4.35-47.88,26.42-72.45,38.91
		c-7.42,3.77-17.49,2.36-26.34,3.32c1.34-8.96-0.55-20.96,4.56-26.37c32.14-34.07,73.9-51.44,119.37-55.4
		c56.3-4.9,113.02-5.05,169.56-6.93c15.09-0.5,19.38,9.6,16.79,22c-19.29,92.48-53.27,177.79-136.11,231.5
		c-25.5,16.54-59.66,20.44-90.45,27.52c-5.55,1.28-14.02-10.17-21.14-15.74c7.06-5.41,14.03-15.33,21.21-15.48
		c42.74-0.87,76.13-20.08,105.23-49.04C816.22,456.38,856.34,375.21,856.15,327.53z"/>
	<path class="st0" d="M551.57,100.96c-33.19,51.02-70.61,95.34-76.9,155.73c-0.65,6.27-10.96,11.53-16.79,17.27
		c-4.81-6.73-14.82-14.71-13.56-19.99c6.99-29.27,13.45-59.45,26.33-86.34c16.69-34.85,39.37-66.82,59.21-100.18
		c7.89-13.27,18.36-15.54,29.01-5.24c54.82,53.06,95.98,113.56,101.32,192.7c0.17,2.53,1.08,5.74-0.08,7.49
		c-5.3,7.96-11.23,15.5-16.93,23.2c-4.99-7.31-13.95-14.41-14.33-21.95C625.65,200.03,594.73,150.14,551.57,100.96z"/>
	<path class="st0" d="M286.41,308.14c11.96,8.15,18.84,11.44,23.93,16.52c80.27,80.08,146.54,169.93,190.56,275.1
		c2.57,6.14,5.46,12.86,5.25,19.22c-0.16,4.93-4.02,12.59-7.9,13.84c-5.31,1.7-12.95-0.2-18.15-3.12c-3.73-2.09-5.53-8.2-7.45-12.82
		c-42.02-101.38-105.49-188.03-182.19-265.65c-4.69-4.75-11.89-10.02-12.2-15.37C277.8,328.09,282.58,320.04,286.41,308.14z"/>
	<path class="st0" d="M805.65,640.8c27.95-3.45,55.84-7.78,83.89-9.75c7.26-0.51,17.15,4.62,21.96,10.39
		c4.27,5.11,5.74,15.61,3.47,21.96c-1.3,3.62-14.71,7.29-18.96,4.75c-25.54-15.25-49.96-7.83-72.43,4.03
		c-41.7,22.02-82.07,46.57-122.91,70.21c-10.96,6.35-23.1,16.54-32.73,1.04c-9.78-15.74,5.43-22.41,15.76-28.8
		c40.77-25.18,81.87-49.82,122.85-74.66L805.65,640.8z"/>
	<path class="st0" d="M649.81,494c-4.16-4.75-12.67-10.25-12.26-14.99c0.59-6.78,6.24-15.43,12.28-19.01
		c23.18-13.76,48.67-23.9,70.84-39c25.02-17.03,46.79-38.77,71.31-56.63c7-5.1,18.65-3.84,28.16-5.5c-1.73,9.4-0.16,22.03-5.71,27.7
		c-42.34,43.27-91.24,77.61-147.33,101.17C662.49,489.69,657.68,491.17,649.81,494z"/>
	<path class="st0" d="M806.56,639.97c-38.51-5.09-68.41,13.38-97.1,35.32c-18.12,13.86-35.61,28.81-55.04,40.52
		c-6.95,4.18-18.78,0.27-28.38,0.05c3-8.52,3.55-19.79,9.45-25.08c21.93-19.61,45.62-37.24,68.65-55.62l-0.68,0.6
		c26.67-9.4,52.73-22.68,80.2-27.05c25.01-3.98,30.18,7.02,21.99,32.08C805.65,640.8,806.56,639.97,806.56,639.97z"/>
	<path class="st0" d="M544.16,236.66c-1.98-22.87-5.4-45.53-5.12-68.14c0.1-8.24,9.02-16.36,13.91-24.54
		c6.03,6.68,17.16,13.26,17.29,20.06c1.05,52.07,0.83,104.23-1.31,156.26c-0.35,8.46-11.84,23.05-18.67,23.34
		c-16.96,0.72-13.96-14.74-12.99-26.44C539.52,290.36,541.86,263.52,544.16,236.66z"/>
	<path class="st0" d="M704.14,635.17c-30.91-3.06-52.81,12.68-72.71,33.76c-8.64,9.16-18.31,17.96-29.07,24.24
		c-4.99,2.91-15.29,1.6-20.25-1.91c-3.52-2.49-5.11-15.44-2.46-17.68c32.08-27.09,54.81-68.9,104.46-69.21
		c24.48-0.15,28.62,6.92,19.35,31.42C703.46,635.77,704.14,635.17,704.14,635.17z"/>
</g>
</svg>
