<?xml version="1.0" encoding="utf-8"?>
<!-- Generator: Adobe Illustrator 26.2.1, SVG Export Plug-In . SVG Version: 6.00 Build 0)  -->
<svg version="1.1" id="Capa_1" xmlns="http://www.w3.org/2000/svg" xmlns:xlink="http://www.w3.org/1999/xlink" x="0px" y="0px"
	 viewBox="0 0 409.6 409.6" style="enable-background:new 0 0 409.6 409.6;" xml:space="preserve">
<style type="text/css">
	.st0{fill:#FFFFFF;}
</style>
<g>
	<path class="st0" d="M0.79,125.7c2.45-4.81,6.52-6.22,11.71-6.2c34.78,0.11,69.57,0.05,104.35,0.06c7.58,0,9.45,1.24,12.32,8.11
		c13.46,32.29,26.92,64.58,40.35,96.88c2.84,6.84,0.27,12.81-5.99,13.33c-2.2,0.18-4.68-0.69-6.75-1.67
		c-8.08-3.84-16.05-7.91-24.37-12.06c-5.13,10.25-10.12,20.23-15.35,30.69c1.77,0.09,3.02,0.21,4.27,0.22
		c12.96,0.01,25.92-0.01,38.88,0.02c7.61,0.01,10.69,2.97,10.7,10.5c0.04,32.53,0.04,65.06,0,97.59
		c-0.01,7.37-3.01,10.32-10.38,10.35c-12.7,0.05-25.39,0.07-38.09,0c-21.39-0.11-38.19-9.05-50.48-26.51
		c-19.21-27.31-38.39-54.65-57.62-81.95c-1.67-2.37-3.67-4.49-5.52-6.73c-4.59-5.57-6.55-12.25-8.04-19.13c0-2.38,0-4.76,0-7.14
		c3.51-8.46,6.68-17.08,10.6-25.34c6.38-13.45,13.17-26.7,19.98-39.94c1.28-2.48,0.95-3.84-0.98-5.7
		c-7.21-6.97-14.28-14.08-21.29-21.25c-2.91-2.98-5.54-6.23-8.3-9.36C0.79,128.88,0.79,127.29,0.79,125.7z M29.87,136.82
		c5.92,5.87,11.07,10.97,16.21,16.1c6.65,6.63,6.93,8.32,2.78,16.59c-9.4,18.77-18.63,37.63-28.25,56.28
		c-7.69,14.92,3.22,29.84,18.3,29.41c18.37-0.52,36.76-0.19,55.14-0.05c2.89,0.02,4.41-0.75,5.72-3.44
		c6.57-13.54,13.37-26.97,20.12-40.43c3.63-7.24,7.53-8.53,14.75-4.99c3.43,1.68,6.86,3.35,11.05,5.39
		c-0.77-2.04-1.16-3.15-1.61-4.23c-9.35-22.42-18.77-44.8-27.99-67.27c-1.16-2.82-2.56-3.64-5.5-3.63
		c-25.39,0.11-50.78,0.06-76.17,0.07C33.28,136.62,32.12,136.72,29.87,136.82z M153.85,272.23c-37.95,0-75.56,0-113.71,0
		c0.97,1.52,1.61,2.63,2.34,3.67c12.11,17.13,24.23,34.24,36.34,51.36c2.59,3.67,5.09,7.41,7.71,11.07
		c7.4,10.33,17.4,16.58,30.03,17.95c6.55,0.71,13.21,0.33,19.82,0.38c5.78,0.05,11.55,0.01,17.48,0.01
		C153.85,328.33,153.85,300.45,153.85,272.23z"/>
	<path class="st0" d="M262.74,407.46c-2.28-1.95-4.82-3.66-6.8-5.87c-17.82-19.91-35.52-39.93-53.31-59.86
		c-3.67-4.11-7.71-7.9-11.4-12.01c-4.23-4.71-4.44-8.13-0.76-13.15c22.27-30.34,44.59-60.66,66.92-90.96
		c2.9-3.93,6.48-5.17,10.33-3.84c3.59,1.24,5.51,4.24,5.56,9.11c0.07,7.91,0.02,15.81,0.02,23.95c11.86,0,23.31,0,35.29,0
		c-0.8-1.38-1.45-2.6-2.18-3.77c-10.01-16.03-20.03-32.06-30.04-48.09c-4.72-7.55-3.62-11.78,4.16-16.11
		c16.51-9.18,33.01-18.39,49.56-27.51c7.74-4.27,15.57-8.39,23.38-12.52c5.97-3.16,10.23-1.98,13.59,3.98
		c12.71,22.57,25.46,45.11,37.96,67.79c7.72,14.02,5.52,29.95-5.23,41.94c-1.58,1.77-3.07,3.64-4.43,5.59
		c-18.38,26.51-36.54,53.17-55.16,79.51c-12.74,18.02-30.14,27.98-52.67,27.9c-4.23-0.01-8.47,0.03-12.7,0.06
		c-0.26,0-0.51,0.12-1.53,0.37c0,1.45,0,3.09,0,4.74c0,5.95-0.18,11.91,0.05,17.86c0.21,5.25-1.61,8.98-6.64,10.9
		C265.38,407.46,264.06,407.46,262.74,407.46z M256.39,376.7c0-4.2-0.02-7.22,0-10.25c0.05-6.5,3.26-9.75,9.71-9.78
		c7.8-0.04,15.6,0.14,23.4-0.06c13.45-0.35,24.55-5.71,32.89-16.35c4.54-5.79,8.99-11.65,13.21-17.67
		c10.99-15.69,21.83-31.48,32.72-47.24c0.63-0.92,1.14-1.93,1.92-3.25c-1.41-0.07-2.3-0.15-3.19-0.15c-33.05-0.01-66.09,0-99.14,0
		c-1.19,0-2.38,0.08-3.56-0.03c-4.7-0.45-7.7-3.54-7.94-8.25c-0.11-2.18-0.02-4.37-0.02-6.56c-0.27-0.08-0.54-0.17-0.8-0.25
		c-15.81,21.72-31.62,43.45-47.6,65.4C223.9,340.15,239.76,357.99,256.39,376.7z M293.68,198.77
		c11.55,18.47,22.71,36.41,34.04,54.24c0.71,1.11,2.71,1.96,4.11,1.97c13.22,0.15,26.44-0.22,39.65,0.17
		c15.75,0.47,26.46-15.44,17.7-30.41c-10.8-18.45-21-37.26-31.46-55.91c-0.69-1.23-1.46-2.42-2.27-3.75
		C334.75,176.37,314.39,187.47,293.68,198.77z"/>
	<path class="st0" d="M235.47,107.93c-6.51-9.47-12.69-18.47-18.98-27.61c-0.62,0.73-0.99,1.11-1.3,1.53
		c-11.91,16.29-23.82,32.57-35.71,48.87c-4.71,6.46-8.05,7.25-15.14,3.38c-29.46-16.06-58.91-32.12-88.36-48.19
		c-7.32-4-8.41-9.09-3.34-15.81c12.42-16.46,24.42-33.26,37.44-49.23c11.8-14.45,27.84-20.34,46.47-19.3
		c3.13,0.18,6.3-0.46,9.45-0.46c31.74-0.04,63.48,0.07,95.22-0.06c16.85-0.07,29.8,6.69,39.01,20.82
		c5.98,9.18,12.17,18.22,18.35,27.47c8.98-4.32,17.66-8.77,26.59-12.61c2.63-1.13,6.3-1.44,8.96-0.55c4.48,1.5,5.68,6.51,3.51,11.76
		c-5.17,12.57-10.36,25.14-15.69,37.65c-8.72,20.47-17.54,40.89-26.35,61.32c-2.42,5.61-5.64,7.2-11.68,6.1
		c-29.76-5.42-59.52-10.82-89.28-16.21c-5.42-0.98-8.3-3.4-8.93-7.61c-0.58-3.85,1.54-7.14,6.26-9.53
		C219.64,115.81,227.32,112,235.47,107.93z M192.89,18.48c3.19,3.83,6.48,7.21,9.13,11.04c17.24,24.87,34.35,49.83,51.48,74.78
		c4.8,6.99,3.51,11.73-4.12,15.62c-2.47,1.26-4.92,2.55-8.29,4.29c1.79,0.42,2.39,0.59,3.01,0.71c18.06,3.29,36.13,6.5,54.17,9.93
		c2.86,0.55,4.11,0.06,5.26-2.74c9.11-22.23,18.41-44.38,27.64-66.55c0.48-1.16,0.88-2.36,1.56-4.2c-4.06,2.03-7.45,3.73-10.85,5.41
		c-6.91,3.42-10.38,2.5-14.7-3.96c-7.13-10.65-14.23-21.32-21.37-31.97c-4.54-6.77-10.46-12.1-18.88-12.22
		C242.49,18.26,218.05,18.48,192.89,18.48z M168.43,117.06c6.09-8.51,11.94-16.82,17.93-25.03c6.05-8.29,12.32-16.42,18.3-24.76
		c0.65-0.91,0.58-3.06-0.07-4.05c-2.14-3.27-4.8-6.2-7.07-9.4c-4.12-5.82-8.04-11.79-12.16-17.62
		c-16.63-23.55-47.81-24.11-65.25-1.16c-7.84,10.31-15.56,20.72-23.33,31.08c-2.05,2.74-4.1,5.48-6.29,8.42
		C116.52,88.73,142.24,102.77,168.43,117.06z"/>
</g>
</svg>
